HIERARCHY
ROOT Hips
{
	OFFSET 0.000000 0.000000 0.000000
	CHANNELS 6 Xposition Yposition Zposition Zrotation Yrotation Xrotation 
	JOINT LHipJoint
	{
		OFFSET 0.000000 0.000000 0.000000
		CHANNELS 3 Zrotation Yrotation Xrotation
		JOINT LeftUpLeg
		{
			OFFSET 1.363060 -1.794630 0.839290
			CHANNELS 3 Zrotation Yrotation Xrotation
			JOINT LeftLeg
			{
				OFFSET 2.448110 -6.726130 0.000000
				CHANNELS 3 Zrotation Yrotation Xrotation
				JOINT LeftFoot
				{
					OFFSET 2.562200 -7.039590 0.000000
					CHANNELS 3 Zrotation Yrotation Xrotation
					JOINT LeftToeBase
					{
						OFFSET 0.157640 -0.433110 2.322550
						CHANNELS 3 Zrotation Yrotation Xrotation
						End Site
						{
							OFFSET 0.000000 0.000000 0.000000
						}
					}
				}
			}
		}
	}
	JOINT RHipJoint
	{
		OFFSET 0.000000 0.000000 0.000000
		CHANNELS 3 Zrotation Yrotation Xrotation
		JOINT RightUpLeg
		{
			OFFSET -1.305520 -1.794630 0.839290
			CHANNELS 3 Zrotation Yrotation Xrotation
			JOINT RightLeg
			{
				OFFSET -2.542530 -6.985550 0.000000
				CHANNELS 3 Zrotation Yrotation Xrotation
				JOINT RightFoot
				{
					OFFSET -2.568260 -7.056230 0.000000
					CHANNELS 3 Zrotation Yrotation Xrotation
					JOINT RightToeBase
					{
						OFFSET -0.164730 -0.452590 2.363150
						CHANNELS 3 Zrotation Yrotation Xrotation
						End Site
						{
							OFFSET 0.000000 0.000000 0.000000
						}
					}
				}
			}
		}
	}
}
MOTION
Frames: 11
Frame Time: 0.008333
4.199314 17.328516 -1.202080 151.853507 -80.176789 -143.248465 -9.758670 0.734801 2.057414 -5.899013 -5.663178 -23.369247 0.960818 1.263926 43.249313 4.010502 28.163122 11.678083 9.787700 0.000000 -56.889400 10.534643 -1.627302 2.325464 4.780478 4.695315 -11.185674 1.630269 -0.725427 16.841601 -1.263252 -4.016119 -9.665091 -0.021201 0.000000 -57.670700
4.230356 17.343428 -1.239822 150.329671 -80.296900 -141.685901 -9.736979 0.441642 2.120131 -5.775899 -6.949908 -25.941200 1.155415 1.426439 47.648724 3.951214 27.598454 14.756355 10.742500 -0.000000 -56.061600 10.647259 -1.549633 2.151879 4.672793 4.350968 -11.005801 1.609140 -0.710479 16.389570 -1.250465 -4.017645 -9.391169 -0.050000 -0.000000 -57.625300
4.262152 17.359037 -1.274662 148.623751 -80.500461 -139.872948 -9.701502 0.121282 2.197536 -5.600128 -8.227211 -28.650847 1.318063 1.572495 51.879920 3.891368 26.784168 17.627284 11.396100 0.000000 -54.323301 10.758446 -1.469693 1.978828 4.593435 3.962148 -10.898713 1.588173 -0.687707 15.902474 -1.243348 -4.052786 -9.092991 -0.082199 0.000000 -57.543100
4.293621 17.375240 -1.306676 146.737379 -80.784576 -137.792541 -9.650479 -0.219485 2.291984 -5.363011 -9.474705 -31.534218 1.455361 1.714219 55.952280 3.831778 25.764358 20.090394 11.699200 0.000000 -51.815000 10.865739 -1.390529 1.819215 4.552494 3.549760 -10.897693 1.567750 -0.656444 15.395278 -1.243611 -4.129417 -8.774902 -0.118499 -0.000000 -57.439400
4.324302 17.391884 -1.336258 144.581360 -81.152879 -135.348614 -9.576932 -0.576444 2.410665 -5.059486 -10.716661 -34.602691 1.579583 1.858399 59.852814 3.779514 24.669260 22.114436 11.736200 -0.000000 -49.463800 10.973454 -1.311097 1.672994 4.550364 3.101557 -11.016929 1.548979 -0.616597 14.875428 -1.249523 -4.237514 -8.441883 -0.158600 0.000000 -57.310600
4.353845 17.408782 -1.363714 142.079759 -81.602657 -132.463072 -9.475939 -0.942951 2.554934 -4.683242 -11.948230 -37.869427 1.703154 2.011899 63.583871 3.733209 23.564513 23.633791 11.554700 0.000000 -47.240500 11.084268 -1.230633 1.541582 4.591831 2.619110 -11.261137 1.532785 -0.567840 14.346796 -1.260653 -4.374576 -8.097487 -0.202899 0.000000 -57.162700
4.382051 17.425739 -1.389489 139.137856 -82.122537 -129.041642 -9.340022 -1.312639 2.726802 -4.228986 -13.169448 -41.332297 1.835823 2.175176 67.117973 3.694917 22.532504 24.685088 11.245600 -0.000001 -45.539000 11.202335 -1.146394 1.424869 4.677214 2.108024 -11.630435 1.519522 -0.510001 13.813533 -1.276525 -4.537586 -7.746824 -0.251400 -0.000000 -56.994300
4.408873 17.442549 -1.414110 135.645528 -82.693953 -124.977699 -9.160101 -1.676614 2.925968 -3.694939 -14.374956 -44.977146 1.982569 2.344854 70.409621 3.665946 21.629162 25.335400 10.887000 0.000000 -44.634500 11.332643 -1.054183 1.321501 4.803335 1.577648 -12.116910 1.508862 -0.442837 13.277586 -1.296735 -4.724611 -7.393374 -0.304300 0.000000 -56.807300
4.434697 17.459111 -1.438135 131.484011 -83.291323 -120.161300 -8.927132 -2.022253 3.148926 -3.084201 -15.550727 -48.782777 2.143977 2.515518 73.401069 3.645054 20.869778 25.641846 10.520701 0.000000 -44.327000 11.479890 -0.948303 1.229115 4.964599 1.040117 -12.707685 1.499899 -0.366035 12.740795 -1.320939 -4.934728 -7.039169 -0.362000 -0.000001 -56.602100
4.459548 17.475339 -1.462130 126.583080 -83.878906 -114.522983 -8.635172 -2.335059 3.393935 -2.400403 -16.678546 -52.728638 2.314784 2.678324 76.013888 3.632815 20.263076 25.707472 10.190300 0.000001 -44.701600 11.643867 -0.823253 1.149667 5.153063 0.520758 -13.400166 1.491127 -0.278588 12.209306 -1.349843 -5.172156 -6.686720 -0.425300 -0.000000 -56.388100
4.485030 17.491450 -1.487093 120.749386 -84.420547 -107.897934 -8.274934 -2.593987 3.653046 -1.666923 -17.765383 -56.746077 2.482374 2.821974 78.141320 3.630044 19.812079 25.673376 9.938500 -0.000000 -46.019700 11.832061 -0.667083 1.063502 5.345131 -0.011295 -14.152505 1.481410 -0.180664 11.678497 -1.378534 -5.415905 -6.329001 -0.494000 0.000000 -56.151600
